<?xml version="1.0" standalone="no"?>
<!DOCTYPE svg PUBLIC "-//W3C//DTD SVG 20010904//EN"
 "http://www.w3.org/TR/2001/REC-SVG-20010904/DTD/svg10.dtd">
<svg version="1.0" xmlns="http://www.w3.org/2000/svg"
 width="184.000000pt" height="75.000000pt" viewBox="0 0 184.000000 75.000000"
 preserveAspectRatio="xMidYMid meet">

<g transform="translate(0.000000,75.000000) scale(0.100000,-0.100000)"
fill="#000000" stroke="none">
<path d="M356 597 c-10 -7 -16 -22 -14 -33 2 -14 12 -19 38 -19 26 0 36 5 38
19 4 17 -20 46 -38 46 -3 0 -14 -6 -24 -13z"/>
<path d="M20 550 l0 -30 85 0 c47 0 85 -3 85 -6 0 -3 -38 -60 -85 -127 -58
-82 -85 -130 -85 -149 l0 -28 135 0 135 0 0 30 0 30 -91 0 c-77 0 -90 2 -85
15 3 8 42 66 86 129 50 72 80 124 80 140 l0 26 -130 0 -130 0 0 -30z"/>
<path d="M800 443 c0 -154 11 -187 69 -218 40 -20 118 -19 161 3 58 28 70 66
70 220 l0 132 -34 0 -34 0 -4 -134 c-4 -155 -13 -176 -77 -176 -70 0 -81 25
-81 184 l0 126 -35 0 -35 0 0 -137z"/>
<path d="M1228 564 c-33 -17 -48 -43 -48 -81 1 -46 24 -75 91 -113 66 -37 80
-59 58 -87 -13 -15 -83 -14 -136 2 -20 7 -23 4 -23 -23 0 -26 5 -32 36 -42 20
-7 61 -10 92 -8 47 4 60 10 84 37 33 37 37 87 10 121 -9 12 -44 36 -77 53 -61
32 -76 56 -55 82 14 17 67 20 103 6 20 -8 25 -5 34 20 11 28 10 29 -25 39 -52
14 -112 12 -144 -6z"/>
<path d="M1480 395 l0 -185 73 0 c141 1 197 32 197 110 0 32 -6 44 -29 61
l-28 21 23 23 c28 28 32 79 9 112 -18 26 -90 43 -180 43 l-65 0 0 -185z m181
104 c24 -38 -6 -69 -67 -69 l-44 0 0 38 c0 21 3 42 8 46 11 12 93 0 103 -15z
m4 -153 c30 -45 -11 -82 -81 -74 -27 3 -29 6 -32 51 l-3 47 50 0 c42 0 53 -4
66 -24z"/>
<path d="M340 350 l0 -140 35 0 35 0 0 140 0 140 -35 0 -35 0 0 -140z"/>
<path d="M535 478 c-11 -6 -26 -18 -32 -26 -20 -24 -16 -86 7 -115 17 -22 18
-26 5 -37 -17 -14 -20 -41 -4 -57 7 -7 2 -15 -15 -27 -29 -19 -36 -69 -13
-100 38 -52 215 -36 247 23 16 30 12 76 -9 102 -15 18 -31 24 -92 28 -41 3
-73 10 -72 16 1 5 28 14 59 21 72 14 97 40 92 98 -2 32 1 42 15 44 9 2 17 12
17 23 0 17 -8 19 -92 19 -51 0 -102 -6 -113 -12z m93 -40 c20 -20 15 -76 -8
-88 -42 -22 -80 24 -61 74 11 28 47 36 69 14z m46 -251 c23 -38 -68 -74 -128
-51 -19 7 -22 60 -3 68 6 2 36 4 66 3 40 -1 57 -7 65 -20z"/>
</g>
</svg>
